<?xml version="1.0" encoding="utf-8"?>
<svg width="1920px" height="1081px" viewBox="0 0 1920 1081" version="1.1" xmlns:xlink="http://www.w3.org/1999/xlink" xmlns="http://www.w3.org/2000/svg">
  <desc>Created with Lunacy</desc>
  <path d="M119.248 0L238.496 230L119.248 460L0 460L119.248 230L0 0L119.248 0ZM884 0L764.752 230L884 460L764.752 460L645.504 230L764.752 0L884 0Z" transform="translate(518 0)" id="Rectangle-2-Difference-Difference-Difference-Union" fill="#FFF9D1" fill-rule="evenodd" stroke="none" />
  <path d="M259 0L518 620L259 1240L71 1240L330 620L71 0.000106812L71 139L58.0662 139L0 0L259 0ZM1594.16 160L1853.16 160L1920 0L1661 0L1594.16 160Z" transform="translate(0 -160)" id="Rectangle-2-Difference-Difference-Difference-Union-2-Difference-Difference" fill="#FFED6F" fill-rule="evenodd" stroke="none" />
  <path d="M259 0L518 620L259 1240L71 1240L330 620L71 0.000106812L71 139L58.0662 139L0 0L259 0ZM1594.16 160L1853.16 160L1920 0L1661 0L1594.16 160Z" transform="matrix(-1 0 0 1 1920 -160.00012)" id="Rectangle-2-Difference-Difference-Difference-Union-2-Difference-Difference-Copy" fill="#FFED6F" fill-rule="evenodd" stroke="none" />
</svg>