<?xml version="1.0" encoding="utf-8"?>
<svg width="326px" height="224px" viewBox="0 0 326 224" version="1.1" xmlns:xlink="http://www.w3.org/1999/xlink" xmlns="http://www.w3.org/2000/svg">
  <desc>Created with Lunacy</desc>
  <g id="Nim-Logo-SVG">
    <path d="M163.98 0C163.98 0 151.512 9.85273 138.802 19.6387C125.726 19.2232 100.081 22.1511 86.1861 27.2045C73.3855 19.0949 62.1379 10.1412 62.1379 10.1412C62.1379 10.1412 52.5266 26.6763 46.4824 36.3798C37.5187 41.1472 28.5186 46.5094 20.4974 53.6039C11.1679 49.8994 0.353007 45.3826 0 45.2333C12.355 70.1537 20.6607 95.107 43.2545 110.105C79.2251 53.2958 246.377 58.5317 283.091 109.783C306.818 97.4076 316.046 70.7814 325.377 46.199C324.354 46.5362 311.657 50.7868 303.427 53.9257C298.513 48.5757 286.93 40.3503 280.347 36.3796C274.103 24.945 265.014 9.49704 265.014 9.49704C265.014 9.49704 254.25 17.5031 241.773 26.2383C224.917 23.1269 204.53 19.3462 187.382 20.2823C175.709 10.6877 163.98 -0.00022314 163.98 -0.00022314L163.98 0Z" id="path3054" fill="#F3D400" stroke="none" />
    <path d="M0 0.413031C0 0.413031 17.5113 42.8135 29.6733 72.2767C81.2081 140.267 212.807 144.993 270.177 73.593C283.753 42.9974 302.069 0 302.069 0C287.351 21.8043 263.397 36.8557 248.645 44.9635C238.162 50.7062 213.974 54.1776 213.974 54.1776L150.472 21.2703L86.6056 53.5193C86.6056 53.5193 62.7395 49.6849 51.9351 44.6344C30.1285 32.9936 15.4622 19.2406 -0.00022314 0.412808L0 0.413031Z" transform="translate(12.709961 97.787964)" id="path3051" fill="#FFE953" stroke="none" />
  </g>
</svg>