<?xml version="1.0" encoding="utf-8"?>
<svg width="1920px" height="1080px" viewBox="0 0 1920 1080" version="1.1" xmlns:xlink="http://www.w3.org/1999/xlink" xmlns="http://www.w3.org/2000/svg">
  <desc>Created with Lunacy</desc>
  <g id="Deco" transform="translate(-47.45166 -2)">
    <path d="M0 0.500244L0.226141 0.500244L244.226 540.25L0.000140626 1080.5L0 0.500244ZM244.226 0.500244L244.226 0L488.452 540.25L244.226 1080.5L244.226 540.25L244.226 1081L0 1081L0 0L0.226141 0.500244L244.226 0.500244L244.226 0.500244Z" id="Triangle-Large-L" fill="#FFED8D" fill-rule="evenodd" stroke="none" />
    <path d="M0 0.500244L0.226141 0.500244L244.226 540.25L0.000140626 1080.5L0 0.500244ZM244.226 0.500244L244.226 0L488.452 540.25L244.226 1080.5L244.226 540.25L244.226 1081L0 1081L0 0L0.226141 0.500244L244.226 0.500244L244.226 0.500244Z" transform="matrix(-1 0 0 1 2015.9016 1)" id="Triangle-Large-R" fill="#FFED8D" fill-rule="evenodd" stroke="none" />
    <path d="M0 0.249878L0 0L0.11296 0.249878L0 0.249878ZM122 269.875L7.0248e-05 539.75L0 0.249878L0 540L122 540L122 269.875L122 269.875ZM122 0.249878L0.11296 0.249878L122 269.875L122 539.75L244 269.875L122 0L122 0.249878Z" transform="translate(488.45166 1)" id="Triangle-Small-L" fill="#fff8cf" fill-rule="evenodd" stroke="none" />
    <path d="M0 0.249878L0 0L0.11296 0.249878L0 0.249878ZM122 269.875L7.0248e-05 539.75L0 0.249878L0 540L122 540L122 269.875L122 269.875ZM122 0.249878L0.11296 0.249878L122 269.875L122 539.75L244 269.875L122 0L122 0.249878Z" transform="matrix(-1 0 0 1 1527.4517 0)" id="Triangle-Small-R" fill="#fff8cf" fill-rule="evenodd" stroke="none" />
  </g>
</svg>